<?xml version="1.0" encoding="UTF-8" ?>
<!DOCTYPE svg PUBLIC "-//W3C//DTD SVG 1.1//EN" "http://www.w3.org/Graphics/SVG/1.1/DTD/svg11.dtd">
<svg width="238pt" height="241pt" viewBox="0 0 238 241" version="1.1" xmlns="http://www.w3.org/2000/svg">
<path fill="#f9fdf4" d=" M 0.00 0.00 L 25.29 0.00 C 24.14 1.31 23.02 2.63 21.88 3.94 C 11.68 8.50 4.17 17.86 1.71 28.72 C 1.43 29.77 1.16 30.82 0.90 31.87 L 0.00 32.18 L 0.00 0.00 Z" />
<path fill="#f0fede" d=" M 25.29 0.00 L 209.04 0.00 C 208.95 0.55 208.79 1.64 208.71 2.18 C 207.55 2.02 206.39 1.88 205.24 1.75 C 147.48 0.44 89.44 0.64 31.71 1.62 C 28.38 2.13 25.12 3.01 21.88 3.94 C 23.02 2.63 24.14 1.31 25.29 0.00 Z" />
<path fill="#f9fdf3" d=" M 209.04 0.00 L 238.00 0.00 L 238.00 66.46 C 235.04 54.52 238.65 41.63 235.10 29.94 C 234.93 29.61 234.57 28.95 234.39 28.62 C 231.91 15.62 221.34 5.49 208.71 2.18 C 208.79 1.64 208.95 0.55 209.04 0.00 Z" />
<path fill="#bcd9a0" d=" M 31.71 1.62 C 89.44 0.64 147.48 0.44 205.24 1.75 C 147.40 2.08 89.54 2.34 31.71 1.62 Z" />
<path fill="#549116" d=" M 21.88 3.94 C 25.12 3.01 28.38 2.13 31.71 1.62 C 89.54 2.34 147.40 2.08 205.24 1.75 C 206.39 1.88 207.55 2.02 208.71 2.18 C 221.34 5.49 231.91 15.62 234.39 28.62 C 234.15 30.82 233.92 33.03 233.80 35.24 C 232.67 32.00 231.41 23.95 226.93 28.73 C 224.97 28.05 228.37 18.23 220.93 23.02 C 220.73 25.59 221.96 27.88 222.85 30.21 C 218.08 28.66 214.05 27.12 216.30 35.13 C 211.43 24.67 201.78 16.52 190.23 14.77 C 142.82 13.37 95.14 13.72 47.71 14.58 C 35.18 16.24 23.85 25.21 19.91 37.31 C 16.32 35.90 21.22 30.28 16.70 30.50 C 8.61 26.91 4.17 33.46 2.15 40.21 C 2.11 36.38 1.98 32.55 1.71 28.72 C 4.17 17.86 11.68 8.50 21.88 3.94 Z" />
<path fill="#9fbd7e" d=" M 47.71 14.58 C 95.14 13.72 142.82 13.37 190.23 14.77 C 142.73 15.02 95.20 15.40 47.71 14.58 Z" />
<path fill="#f6fde6" d=" M 19.91 37.31 C 23.85 25.21 35.18 16.24 47.71 14.58 C 95.20 15.40 142.73 15.02 190.23 14.77 C 201.78 16.52 211.43 24.67 216.30 35.13 C 217.08 37.63 217.88 40.13 218.36 42.71 C 217.55 75.12 218.21 107.55 218.01 139.97 C 217.03 140.38 216.04 140.78 215.05 141.17 C 214.51 110.03 215.86 78.79 214.41 47.70 C 214.13 46.06 213.84 44.41 213.42 42.80 C 212.90 40.75 212.13 38.78 211.26 36.87 C 207.82 28.02 199.46 21.58 190.24 19.74 C 142.50 18.49 94.41 18.54 46.72 19.68 C 35.55 21.72 25.52 30.57 23.59 42.00 C 23.31 42.92 23.06 43.84 22.84 44.77 C 20.71 86.82 22.89 129.10 21.75 171.24 C 21.11 158.37 19.88 145.55 18.22 132.77 C 17.56 103.77 18.48 74.75 17.72 45.75 C 18.10 42.86 19.12 40.11 19.91 37.31 Z" />
<path fill="#a0be80" d=" M 46.72 19.68 C 94.41 18.54 142.50 18.49 190.24 19.74 C 142.40 20.12 94.55 20.26 46.72 19.68 Z" />
<path fill="#5c9223" d=" M 23.59 42.00 C 25.52 30.57 35.55 21.72 46.72 19.68 C 94.55 20.26 142.40 20.12 190.24 19.74 C 199.46 21.58 207.82 28.02 211.26 36.87 C 205.14 32.65 201.43 24.95 193.46 23.61 C 146.80 21.94 100.00 23.87 53.30 22.65 C 43.02 21.48 32.30 27.57 27.67 36.71 C 26.51 38.63 25.64 40.84 23.59 42.00 Z" />
<path fill="#5d9c10" d=" M 27.67 36.71 C 32.30 27.57 43.02 21.48 53.30 22.65 C 100.00 23.87 146.80 21.94 193.46 23.61 C 201.43 24.95 205.14 32.65 211.26 36.87 C 212.13 38.78 212.90 40.75 213.42 42.80 C 213.01 47.43 210.40 50.47 206.55 46.53 C 178.53 46.66 150.15 48.09 122.03 47.01 C 126.28 53.97 107.68 54.08 111.97 47.07 C 102.25 47.66 92.14 45.88 82.67 47.23 C 78.18 44.57 71.55 45.20 67.59 48.50 C 54.52 46.01 39.88 47.97 26.30 46.73 C 23.82 46.41 23.88 43.96 23.59 42.00 C 25.64 40.84 26.51 38.63 27.67 36.71 Z" />
<path fill="#609e12" d=" M 220.93 23.02 C 228.37 18.23 224.97 28.05 226.93 28.73 C 231.41 23.95 232.67 32.00 233.80 35.24 C 233.98 42.17 234.08 49.11 233.97 56.05 C 227.89 55.59 221.01 54.80 219.18 47.81 C 218.96 46.10 218.73 44.39 218.36 42.71 C 217.88 40.13 217.08 37.63 216.30 35.13 C 214.05 27.12 218.08 28.66 222.85 30.21 C 221.96 27.88 220.73 25.59 220.93 23.02 Z" />
<path fill="#accd73" d=" M 0.90 31.87 C 1.16 30.82 1.43 29.77 1.71 28.72 C 1.98 32.55 2.11 36.38 2.15 40.21 C 1.92 48.87 1.96 57.53 2.07 66.19 C 1.95 76.89 1.89 87.59 2.25 98.29 C 1.83 107.58 2.01 116.88 2.08 126.18 C 1.98 133.79 1.97 141.39 1.98 149.00 C 1.97 158.00 1.97 167.00 1.99 176.01 C 2.01 186.76 2.09 197.50 1.72 208.25 C -0.03 149.53 1.61 90.65 0.90 31.87 Z" />
<path fill="#97bc57" d=" M 234.39 28.62 C 234.57 28.95 234.93 29.61 235.10 29.94 C 234.47 89.38 235.84 148.90 234.42 208.30 C 234.15 202.91 233.97 197.53 234.03 192.14 C 234.05 184.42 234.03 176.71 233.98 168.99 C 233.99 160.32 234.04 151.66 234.02 142.99 C 233.98 133.01 234.05 123.04 234.00 113.06 C 233.94 103.08 234.08 93.10 233.98 83.11 C 234.00 74.09 234.03 65.07 233.97 56.05 C 234.08 49.11 233.98 42.17 233.80 35.24 C 233.92 33.03 234.15 30.82 234.39 28.62 Z" />
<path fill="#63a113" d=" M 2.15 40.21 C 4.17 33.46 8.61 26.91 16.70 30.50 C 21.22 30.28 16.32 35.90 19.91 37.31 C 19.12 40.11 18.10 42.86 17.72 45.75 C 16.70 52.14 17.01 58.63 17.00 65.07 C 12.80 62.08 3.67 58.98 2.07 66.19 C 1.96 57.53 1.92 48.87 2.15 40.21 Z" />
<path fill="#f6fee3" d=" M 235.10 29.94 C 238.65 41.63 235.04 54.52 238.00 66.46 L 238.00 227.17 C 234.14 226.81 230.34 226.19 226.64 225.06 C 227.22 224.11 227.80 223.15 228.38 222.19 C 231.07 217.91 234.05 213.50 234.42 208.30 C 235.84 148.90 234.47 89.38 235.10 29.94 Z" />
<path fill="#eefec7" d=" M 0.00 32.18 L 0.90 31.87 C 1.61 90.65 -0.03 149.53 1.72 208.25 C 2.07 210.02 2.85 211.66 3.56 213.31 C 4.77 216.31 6.29 219.17 7.97 221.94 C 8.00 222.45 8.04 223.46 8.07 223.97 C 3.63 220.83 2.78 214.90 0.00 210.50 L 0.00 32.18 Z" />
<path fill="#69a613" d=" M 22.84 44.77 C 23.06 43.84 23.31 42.92 23.59 42.00 C 23.88 43.96 23.82 46.41 26.30 46.73 C 39.88 47.97 54.52 46.01 67.59 48.50 C 71.55 45.20 78.18 44.57 82.67 47.23 C 92.14 45.88 102.25 47.66 111.97 47.07 C 107.68 54.08 126.28 53.97 122.03 47.01 C 150.15 48.09 178.53 46.66 206.55 46.53 C 210.40 50.47 213.01 47.43 213.42 42.80 C 213.84 44.41 214.13 46.06 214.41 47.70 C 213.96 56.19 213.96 64.69 213.91 73.19 C 214.09 69.19 212.19 65.16 208.40 63.66 C 186.79 66.06 164.12 62.79 142.47 65.04 C 144.23 69.59 138.87 67.97 135.77 68.22 C 124.81 65.19 113.27 65.45 102.09 66.99 C 98.48 67.13 93.56 68.20 91.91 64.03 C 88.99 60.59 95.72 56.11 91.75 53.11 C 87.38 51.16 85.85 58.75 81.62 56.51 C 77.16 56.15 77.93 50.80 75.82 48.04 C 69.07 45.68 72.20 56.34 66.38 56.51 C 61.63 59.15 58.82 47.84 55.14 54.27 C 55.38 58.58 58.84 65.53 52.23 66.80 C 49.69 66.66 45.68 64.49 44.58 67.88 C 42.70 69.52 39.09 66.71 40.74 70.82 C 36.42 72.36 30.36 71.70 26.04 69.29 C 24.67 70.66 23.88 72.46 23.08 74.20 C 23.07 64.39 22.99 54.58 22.84 44.77 Z" />
<path fill="#cfeaa2" d=" M 218.36 42.71 C 218.73 44.39 218.96 46.10 219.18 47.81 C 219.14 59.77 218.55 71.76 219.24 83.72 C 218.83 102.12 218.98 120.54 219.04 138.95 C 219.11 140.64 219.25 144.01 219.32 145.70 C 218.79 160.86 218.90 176.04 219.16 191.21 C 218.97 191.74 218.57 192.79 218.38 193.31 C 217.60 175.54 218.16 157.75 218.01 139.97 C 218.21 107.55 217.55 75.12 218.36 42.71 Z" />
<path fill="#b0d175" d=" M 21.75 171.24 C 22.89 129.10 20.71 86.82 22.84 44.77 C 22.99 54.58 23.07 64.39 23.08 74.20 C 22.93 81.56 23.01 88.92 23.23 96.28 C 22.89 106.26 22.85 116.25 23.19 126.23 C 23.09 129.50 23.01 132.79 22.99 136.07 C 22.96 137.76 22.99 139.45 23.01 141.14 C 23.00 145.01 23.01 148.88 23.06 152.76 C 22.96 160.92 22.93 169.09 23.12 177.26 C 23.04 181.59 23.11 185.92 23.03 190.25 C 22.95 190.75 22.81 191.75 22.73 192.25 C 21.63 185.29 22.06 178.23 21.75 171.24 Z" />
<path fill="#a3c958" d=" M 17.00 65.07 C 17.01 58.63 16.70 52.14 17.72 45.75 C 18.48 74.75 17.56 103.77 18.22 132.77 C 17.63 152.59 18.41 172.43 17.75 192.25 C 17.13 188.21 17.08 184.14 16.97 180.07 C 17.01 167.71 17.00 155.35 17.04 142.99 C 17.08 137.42 17.00 131.85 16.82 126.29 C 17.03 116.59 17.13 106.89 16.90 97.20 C 16.98 86.49 17.08 75.78 17.00 65.07 Z" />
<path fill="#f5fcea" d=" M 66.38 56.51 C 72.20 56.34 69.07 45.68 75.82 48.04 C 77.93 50.80 77.16 56.15 81.62 56.51 C 85.85 58.75 87.38 51.16 91.75 53.11 C 95.72 56.11 88.99 60.59 91.91 64.03 C 93.56 68.20 98.48 67.13 102.09 66.99 C 105.28 71.50 99.67 73.19 96.70 75.21 C 94.76 77.47 94.75 79.40 96.67 81.00 C 98.78 82.40 100.97 83.69 103.11 85.05 C 102.78 86.37 102.43 87.69 102.02 88.99 C 93.48 85.14 88.31 93.80 92.83 100.25 C 89.90 108.43 85.64 96.90 80.61 99.50 C 75.31 100.38 78.19 110.52 71.18 107.95 C 71.56 102.78 66.75 96.03 61.71 100.70 C 59.48 104.46 52.20 102.81 55.18 98.23 C 56.82 96.02 58.17 92.67 55.33 90.77 C 52.93 87.60 48.39 89.65 45.01 88.80 C 41.11 81.23 55.02 83.73 50.94 76.15 C 49.47 73.15 44.41 72.15 44.58 67.88 C 47.12 67.46 49.67 67.11 52.23 66.80 C 58.84 65.53 55.38 58.58 55.14 54.27 C 58.82 47.84 61.63 59.15 66.38 56.51 Z" />
<path fill="#e1fab9" d=" M 214.41 47.70 C 215.86 78.79 214.51 110.03 215.05 141.17 C 214.51 157.20 215.86 173.32 214.43 189.29 C 214.23 185.18 214.08 181.08 213.95 176.97 C 213.96 171.68 214.07 166.41 213.98 161.12 C 213.91 153.13 214.25 145.14 213.87 137.16 C 213.84 136.70 213.77 135.77 213.74 135.30 C 214.03 119.79 214.28 104.27 213.78 88.76 C 213.88 85.42 214.01 82.10 213.96 78.77 C 213.98 76.91 213.96 75.05 213.91 73.19 C 213.96 64.69 213.96 56.19 214.41 47.70 Z" />
<path fill="#71ac17" d=" M 219.18 47.81 C 221.01 54.80 227.89 55.59 233.97 56.05 C 234.03 65.07 234.00 74.09 233.98 83.11 C 230.87 80.51 226.33 77.13 222.40 80.33 C 221.63 82.93 221.05 85.59 220.30 88.21 C 219.99 86.70 219.63 85.20 219.24 83.72 C 218.55 71.76 219.14 59.77 219.18 47.81 Z" />
<path fill="#7bb32a" d=" M 108.39 54.42 C 115.57 54.08 126.41 51.62 130.90 58.84 C 118.95 61.06 105.34 57.84 92.95 61.96 C 95.06 56.94 103.53 56.92 108.39 54.42 Z" />
<path fill="#76b412" d=" M 2.07 66.19 C 3.67 58.98 12.80 62.08 17.00 65.07 C 17.08 75.78 16.98 86.49 16.90 97.20 C 15.27 90.92 9.72 90.86 4.37 91.26 C 3.96 93.67 3.21 96.04 2.25 98.29 C 1.89 87.59 1.95 76.89 2.07 66.19 Z" />
<path fill="#71b10f" d=" M 142.47 65.04 C 164.12 62.79 186.79 66.06 208.40 63.66 C 212.19 65.16 214.09 69.19 213.91 73.19 C 213.96 75.05 213.98 76.91 213.96 78.77 C 209.26 80.06 204.34 87.82 200.81 82.29 C 187.32 85.08 173.23 79.97 160.02 83.17 C 162.14 85.08 161.72 91.57 159.57 86.94 C 159.16 85.57 157.83 84.78 156.96 83.72 C 153.49 74.42 144.05 71.57 135.77 68.22 C 138.87 67.97 144.23 69.59 142.47 65.04 Z" />
<path fill="#759d3f" d=" M 60.92 83.02 C 54.17 72.88 69.93 57.67 80.10 65.96 C 69.55 62.50 57.84 71.30 60.92 83.02 Z" />
<path fill="#74b016" d=" M 60.92 83.02 C 57.84 71.30 69.55 62.50 80.10 65.96 C 82.45 66.71 86.19 68.82 85.86 71.69 C 79.41 76.35 71.78 79.63 68.31 87.35 C 67.16 90.79 64.70 86.94 62.86 86.07 C 61.74 85.38 60.66 84.51 60.92 83.02 Z" />
<path fill="#bad984" d=" M 44.58 67.88 C 45.68 64.49 49.69 66.66 52.23 66.80 C 49.67 67.11 47.12 67.46 44.58 67.88 Z" />
<path fill="#88bc34" d=" M 102.09 66.99 C 113.27 65.45 124.81 65.19 135.77 68.22 C 144.05 71.57 153.49 74.42 156.96 83.72 C 152.93 84.33 151.07 87.94 148.67 90.77 C 143.81 90.62 138.77 88.44 139.47 82.44 C 139.55 78.60 135.76 80.48 133.17 80.82 C 133.41 75.86 127.34 75.34 123.98 74.07 C 115.24 72.05 105.13 71.80 97.31 76.89 C 97.16 76.47 96.85 75.63 96.70 75.21 C 99.67 73.19 105.28 71.50 102.09 66.99 Z" />
<path fill="#79b516" d=" M 40.74 70.82 C 39.09 66.71 42.70 69.52 44.58 67.88 C 44.41 72.15 49.47 73.15 50.94 76.15 C 55.02 83.73 41.11 81.23 45.01 88.80 C 48.39 89.65 52.93 87.60 55.33 90.77 C 55.45 92.24 55.61 93.71 55.48 95.18 C 52.66 90.13 46.34 91.77 41.86 89.39 C 34.85 90.46 24.04 85.95 23.23 96.28 C 23.01 88.92 22.93 81.56 23.08 74.20 C 23.88 72.46 24.67 70.66 26.04 69.29 C 30.36 71.70 36.42 72.36 40.74 70.82 Z" />
<path fill="#8abc35" d=" M 68.31 87.35 C 71.78 79.63 79.41 76.35 85.86 71.69 C 89.83 76.08 88.12 84.59 83.33 88.33 C 78.23 93.93 65.61 93.73 62.86 86.07 C 64.70 86.94 67.16 90.79 68.31 87.35 Z" />
<path fill="#76b118" d=" M 97.31 76.89 C 105.13 71.80 115.24 72.05 123.98 74.07 C 127.34 75.34 133.41 75.86 133.17 80.82 C 132.44 83.25 131.73 85.69 130.85 88.07 C 126.53 87.85 122.96 85.49 119.25 83.55 C 117.60 81.61 115.07 82.72 112.93 82.83 C 109.56 83.01 106.22 83.71 103.11 85.05 C 100.97 83.69 98.78 82.40 96.67 81.00 C 96.99 79.64 97.20 78.28 97.31 76.89 Z" />
<path fill="#b6d397" d=" M 96.67 81.00 C 94.75 79.40 94.76 77.47 96.70 75.21 C 96.85 75.63 97.16 76.47 97.31 76.89 C 97.20 78.28 96.99 79.64 96.67 81.00 Z" />
<path fill="#7fbd12" d=" M 200.81 82.29 C 204.34 87.82 209.26 80.06 213.96 78.77 C 214.01 82.10 213.88 85.42 213.78 88.76 C 212.99 94.12 212.99 99.55 213.00 104.96 C 200.68 101.38 187.79 102.94 175.22 104.31 C 175.55 107.09 175.56 110.15 177.62 112.27 L 178.15 113.00 C 174.89 113.08 173.89 109.06 172.34 106.80 C 174.29 102.83 179.69 97.26 173.05 95.09 C 168.59 97.17 163.76 100.93 159.69 96.28 C 159.54 94.78 159.16 93.32 158.65 91.91 C 158.95 90.25 159.26 88.59 159.57 86.94 C 161.72 91.57 162.14 85.08 160.02 83.17 C 173.23 79.97 187.32 85.08 200.81 82.29 Z" />
<path fill="#82bf10" d=" M 222.40 80.33 C 226.33 77.13 230.87 80.51 233.98 83.11 C 234.08 93.10 233.94 103.08 234.00 113.06 C 230.57 107.58 224.68 109.93 219.98 112.01 C 220.00 104.08 219.76 96.13 220.30 88.21 C 221.05 85.59 221.63 82.93 222.40 80.33 Z" />
<path fill="#f4fbe9" d=" M 133.17 80.82 C 135.76 80.48 139.55 78.60 139.47 82.44 C 138.77 88.44 143.81 90.62 148.67 90.77 C 151.07 87.94 152.93 84.33 156.96 83.72 C 157.83 84.78 159.16 85.57 159.57 86.94 C 159.26 88.59 158.95 90.25 158.65 91.91 C 157.20 93.31 157.39 95.99 159.69 96.28 C 163.76 100.93 168.59 97.17 173.05 95.09 C 179.69 97.26 174.29 102.83 172.34 106.80 C 173.89 109.06 174.89 113.08 178.15 113.00 C 181.08 113.12 184.05 113.01 187.00 113.02 C 187.50 114.56 188.02 116.14 187.97 117.79 C 185.14 119.99 179.21 121.52 181.46 126.16 L 181.65 126.97 C 181.68 132.25 188.16 131.40 191.77 132.76 C 195.37 141.03 183.19 137.80 182.48 143.97 C 181.15 146.33 180.56 149.91 183.80 150.05 C 189.68 150.93 193.12 160.78 183.97 158.98 C 177.88 156.35 177.04 162.28 175.03 165.86 C 172.82 168.72 176.45 171.27 177.14 174.05 C 170.81 171.89 159.58 170.27 161.80 181.07 C 158.59 179.97 156.52 176.34 154.13 174.06 C 158.86 171.07 166.55 170.68 168.42 164.56 C 167.71 157.06 175.92 151.47 173.05 144.04 C 172.68 139.95 173.35 135.71 172.32 131.70 C 172.06 130.70 171.75 129.71 171.40 128.74 C 168.08 117.61 160.48 106.84 149.23 102.82 C 145.99 101.52 142.69 100.33 139.26 99.73 C 135.15 99.08 130.75 98.34 126.70 99.65 C 121.83 101.04 116.90 102.66 112.81 105.76 C 110.16 107.56 107.81 109.75 105.52 111.98 C 101.35 115.34 99.23 120.32 97.07 125.06 C 96.85 125.55 96.40 126.52 96.17 127.00 C 89.38 130.63 91.73 140.30 88.16 146.19 C 87.29 149.90 84.24 156.35 79.64 153.32 C 76.62 149.28 84.15 148.54 84.09 144.94 C 83.99 141.72 85.54 136.86 81.45 135.80 C 79.65 134.82 77.75 134.02 76.01 132.92 C 73.22 124.71 83.83 129.82 85.88 124.83 C 89.46 120.54 86.41 116.70 82.56 113.79 C 81.40 110.96 81.89 107.44 85.72 107.84 C 88.93 108.18 93.77 111.97 95.49 107.42 C 99.87 104.35 96.07 100.15 94.51 96.73 C 94.15 93.57 98.28 90.51 100.90 93.09 C 103.76 97.41 108.29 97.22 111.95 93.99 C 114.23 91.59 112.44 86.98 112.83 83.78 L 112.93 82.83 C 115.07 82.72 117.60 81.61 119.25 83.55 C 120.33 89.45 125.98 92.38 130.85 88.07 C 131.73 85.69 132.44 83.25 133.17 80.82 Z" />
<path fill="#8cbe36" d=" M 103.11 85.05 C 106.22 83.71 109.56 83.01 112.93 82.83 L 112.83 83.78 C 112.30 87.16 111.97 90.57 111.95 93.99 C 108.29 97.22 103.76 97.41 100.90 93.09 C 101.29 91.73 101.64 90.36 102.02 88.99 C 102.43 87.69 102.78 86.37 103.11 85.05 Z" />
<path fill="#bed98f" d=" M 111.95 93.99 C 111.97 90.57 112.30 87.16 112.83 83.78 C 112.44 86.98 114.23 91.59 111.95 93.99 Z" />
<path fill="#9ec55b" d=" M 119.25 83.55 C 122.96 85.49 126.53 87.85 130.85 88.07 C 125.98 92.38 120.33 89.45 119.25 83.55 Z" />
<path fill="#92ba4a" d=" M 219.24 83.72 C 219.63 85.20 219.99 86.70 220.30 88.21 C 219.76 96.13 220.00 104.08 219.98 112.01 C 219.96 120.98 220.00 129.96 220.02 138.93 L 219.04 138.95 C 218.98 120.54 218.83 102.12 219.24 83.72 Z" />
<path fill="#85c114" d=" M 23.23 96.28 C 24.04 85.95 34.85 90.46 41.86 89.39 C 46.34 91.77 52.66 90.13 55.48 95.18 C 55.41 95.94 55.26 97.47 55.18 98.23 C 52.20 102.81 59.48 104.46 61.71 100.70 C 66.75 96.03 71.56 102.78 71.18 107.95 C 71.85 108.76 72.55 109.55 73.28 110.32 C 70.83 114.27 66.74 116.66 62.86 119.03 C 63.47 115.13 68.89 111.32 67.40 107.68 C 54.27 106.55 39.62 105.27 26.73 106.79 C 24.29 112.87 25.38 119.97 23.19 126.23 C 22.85 116.25 22.89 106.26 23.23 96.28 Z" />
<path fill="#9fc067" d=" M 92.83 100.25 C 88.31 93.80 93.48 85.14 102.02 88.99 C 101.64 90.36 101.29 91.73 100.90 93.09 C 98.28 90.51 94.15 93.57 94.51 96.73 C 93.92 97.89 93.33 99.05 92.83 100.25 Z" />
<path fill="#92c038" d=" M 213.00 104.96 C 212.99 99.55 212.99 94.12 213.78 88.76 C 214.28 104.27 214.03 119.79 213.74 135.30 C 213.42 133.91 213.12 132.52 212.86 131.12 C 212.98 122.40 213.09 113.68 213.00 104.96 Z" />
<path fill="#88c611" d=" M 4.37 91.26 C 9.72 90.86 15.27 90.92 16.90 97.20 C 17.13 106.89 17.03 116.59 16.82 126.29 C 14.90 118.95 3.48 118.06 2.08 126.18 C 2.01 116.88 1.83 107.58 2.25 98.29 C 3.21 96.04 3.96 93.67 4.37 91.26 Z" />
<path fill="#a7cb6a" d=" M 55.33 90.77 C 58.17 92.67 56.82 96.02 55.18 98.23 C 55.26 97.47 55.41 95.94 55.48 95.18 C 55.61 93.71 55.45 92.24 55.33 90.77 Z" />
<path fill="#b2ce8a" d=" M 159.69 96.28 C 157.39 95.99 157.20 93.31 158.65 91.91 C 159.16 93.32 159.54 94.78 159.69 96.28 Z" />
<path fill="#8dbb3d" d=" M 92.83 100.25 C 93.33 99.05 93.92 97.89 94.51 96.73 C 96.07 100.15 99.87 104.35 95.49 107.42 C 93.77 111.97 88.93 108.18 85.72 107.84 C 85.03 105.68 88.32 102.53 84.70 102.30 C 78.57 99.92 78.55 109.91 73.28 110.32 C 72.55 109.55 71.85 108.76 71.18 107.95 C 78.19 110.52 75.31 100.38 80.61 99.50 C 85.64 96.90 89.90 108.43 92.83 100.25 Z" />
<path fill="#c5db9f" d=" M 126.70 99.65 C 130.75 98.34 135.15 99.08 139.26 99.73 C 135.07 99.73 130.88 99.70 126.70 99.65 Z" />
<path fill="#87af49" d=" M 112.81 105.76 C 116.90 102.66 121.83 101.04 126.70 99.65 C 130.88 99.70 135.07 99.73 139.26 99.73 C 142.69 100.33 145.99 101.52 149.23 102.82 C 142.41 102.49 135.62 100.09 128.79 101.40 C 124.12 101.55 119.62 103.04 115.73 105.59 C 115.00 105.63 113.54 105.72 112.81 105.76 Z" />
<path fill="#9ed137" d=" M 128.79 101.40 C 135.62 100.09 142.41 102.49 149.23 102.82 C 160.48 106.84 168.08 117.61 171.40 128.74 C 170.82 128.55 169.66 128.17 169.08 127.99 C 169.23 117.55 155.16 124.60 149.09 120.00 C 140.08 116.27 136.99 105.58 128.79 101.40 Z" />
<path fill="#a2d735" d=" M 73.28 110.32 C 78.55 109.91 78.57 99.92 84.70 102.30 C 88.32 102.53 85.03 105.68 85.72 107.84 C 81.89 107.44 81.40 110.96 82.56 113.79 C 79.08 117.16 76.78 121.59 74.80 125.95 C 78.55 126.26 82.23 125.56 85.88 124.83 C 83.83 129.82 73.22 124.71 76.01 132.92 C 73.28 127.25 65.89 132.45 60.89 131.98 C 61.42 128.93 61.91 125.85 61.82 122.74 C 62.11 121.49 62.42 120.24 62.86 119.03 C 66.74 116.66 70.83 114.27 73.28 110.32 Z" />
<path fill="#8bc812" d=" M 115.73 105.59 C 119.62 103.04 124.12 101.55 128.79 101.40 C 136.99 105.58 140.08 116.27 149.09 120.00 C 149.54 121.04 150.39 122.31 148.74 122.69 C 142.76 122.41 136.78 120.10 130.87 122.27 C 126.02 116.54 121.70 110.26 115.73 105.59 Z" />
<path fill="#8ecc0f" d=" M 175.22 104.31 C 187.79 102.94 200.68 101.38 213.00 104.96 C 213.09 113.68 212.98 122.40 212.86 131.12 C 202.39 130.88 192.02 125.83 181.65 126.97 L 181.46 126.16 C 182.95 122.82 187.18 121.35 187.97 117.79 C 188.02 116.14 187.50 114.56 187.00 113.02 C 185.64 110.14 180.35 112.78 177.62 112.27 C 175.56 110.15 175.55 107.09 175.22 104.31 Z" />
<path fill="#8fcd0e" d=" M 26.73 106.79 C 39.62 105.27 54.27 106.55 67.40 107.68 C 68.89 111.32 63.47 115.13 62.86 119.03 C 62.42 120.24 62.11 121.49 61.82 122.74 C 60.97 124.74 60.81 128.52 58.08 128.63 C 50.34 127.36 42.95 131.53 35.33 132.35 C 31.58 134.21 25.56 132.09 22.99 136.07 C 23.01 132.79 23.09 129.50 23.19 126.23 C 25.38 119.97 24.29 112.87 26.73 106.79 Z" />
<path fill="#a0d631" d=" M 105.52 111.98 C 107.81 109.75 110.16 107.56 112.81 105.76 C 113.54 105.72 115.00 105.63 115.73 105.59 C 121.70 110.26 126.02 116.54 130.87 122.27 C 131.61 123.48 132.30 124.72 132.99 125.96 C 129.59 125.95 126.20 126.02 122.80 126.05 C 122.14 126.01 120.80 125.94 120.13 125.91 C 119.02 118.48 112.88 113.02 105.52 111.98 Z" />
<path fill="#94d311" d=" M 219.98 112.01 C 224.68 109.93 230.57 107.58 234.00 113.06 C 234.05 123.04 233.98 133.01 234.02 142.99 C 229.57 140.97 224.75 140.01 220.02 138.93 C 220.00 129.96 219.96 120.98 219.98 112.01 Z" />
<path fill="#93d018" d=" M 97.07 125.06 C 99.23 120.32 101.35 115.34 105.52 111.98 C 112.88 113.02 119.02 118.48 120.13 125.91 C 117.04 125.97 113.95 125.88 110.89 126.32 C 109.28 126.56 107.68 126.86 106.08 127.09 C 102.90 127.07 99.04 128.14 97.07 125.06 Z" />
<path fill="#c1e180" d=" M 177.62 112.27 C 180.35 112.78 185.64 110.14 187.00 113.02 C 184.05 113.01 181.08 113.12 178.15 113.00 L 177.62 112.27 Z" />
<path fill="#91ca1d" d=" M 74.80 125.95 C 76.78 121.59 79.08 117.16 82.56 113.79 C 86.41 116.70 89.46 120.54 85.88 124.83 C 82.23 125.56 78.55 126.26 74.80 125.95 Z" />
<path fill="#8bb34a" d=" M 181.46 126.16 C 179.21 121.52 185.14 119.99 187.97 117.79 C 187.18 121.35 182.95 122.82 181.46 126.16 Z" />
<path fill="#99d811" d=" M 2.08 126.18 C 3.48 118.06 14.90 118.95 16.82 126.29 C 17.00 131.85 17.08 137.42 17.04 142.99 C 12.09 145.18 6.92 146.81 1.98 149.00 C 1.97 141.39 1.98 133.79 2.08 126.18 Z" />
<path fill="#9bdd13" d=" M 149.09 120.00 C 155.16 124.60 169.23 117.55 169.08 127.99 C 157.27 128.26 145.57 125.87 133.76 126.06 L 132.99 125.96 C 132.30 124.72 131.61 123.48 130.87 122.27 C 136.78 120.10 142.76 122.41 148.74 122.69 C 150.39 122.31 149.54 121.04 149.09 120.00 Z" />
<path fill="#9de112" d=" M 58.08 128.63 C 60.81 128.52 60.97 124.74 61.82 122.74 C 61.91 125.85 61.42 128.93 60.89 131.98 C 48.01 134.02 35.65 138.13 23.01 141.14 C 22.99 139.45 22.96 137.76 22.99 136.07 C 25.56 132.09 31.58 134.21 35.33 132.35 C 42.95 131.53 50.34 127.36 58.08 128.63 Z" />
<path fill="#69af19" d=" M 97.07 125.06 C 99.04 128.14 102.90 127.07 106.08 127.09 C 101.28 133.85 106.35 144.80 100.26 151.29 C 99.01 153.10 97.84 150.83 96.75 150.07 C 94.40 142.59 94.73 134.62 96.17 127.00 C 96.40 126.52 96.85 125.55 97.07 125.06 Z" />
<path fill="#81c233" d=" M 106.08 127.09 C 107.68 126.86 109.28 126.56 110.89 126.32 C 115.28 134.35 118.69 143.40 116.70 152.69 C 114.67 158.06 110.80 162.40 107.66 167.12 C 102.97 162.31 98.45 156.70 96.75 150.07 C 97.84 150.83 99.01 153.10 100.26 151.29 C 106.35 144.80 101.28 133.85 106.08 127.09 Z" />
<path fill="#6bb513" d=" M 110.89 126.32 C 113.95 125.88 117.04 125.97 120.13 125.91 C 120.80 125.94 122.14 126.01 122.80 126.05 C 125.34 135.29 129.77 146.76 140.43 148.48 C 149.50 149.14 160.28 152.60 168.32 147.32 C 173.07 143.78 166.48 139.62 162.81 139.34 C 152.55 137.37 140.02 135.46 133.76 126.06 C 145.57 125.87 157.27 128.26 169.08 127.99 C 169.66 128.17 170.82 128.55 171.40 128.74 C 171.75 129.71 172.06 130.70 172.32 131.70 C 172.22 135.80 172.14 139.91 172.09 144.01 C 171.74 149.74 168.78 154.89 166.02 159.79 C 154.67 159.68 143.26 158.98 131.99 157.31 C 122.94 157.65 121.08 169.79 112.95 171.27 C 111.11 169.99 109.29 168.66 107.66 167.12 C 110.80 162.40 114.67 158.06 116.70 152.69 C 118.69 143.40 115.28 134.35 110.89 126.32 Z" />
<path fill="#7cc031" d=" M 122.80 126.05 C 126.20 126.02 129.59 125.95 132.99 125.96 L 133.76 126.06 C 140.02 135.46 152.55 137.37 162.81 139.34 C 166.48 139.62 173.07 143.78 168.32 147.32 C 160.28 152.60 149.50 149.14 140.43 148.48 C 129.77 146.76 125.34 135.29 122.80 126.05 Z" />
<path fill="#a0e01a" d=" M 181.65 126.97 C 192.02 125.83 202.39 130.88 212.86 131.12 C 213.12 132.52 213.42 133.91 213.74 135.30 C 213.77 135.77 213.84 136.70 213.87 137.16 C 206.55 135.64 199.22 132.55 191.77 132.76 C 188.16 131.40 181.68 132.25 181.65 126.97 Z" />
<path fill="#ecf7db" d=" M 88.16 146.19 C 91.73 140.30 89.38 130.63 96.17 127.00 C 94.73 134.62 94.40 142.59 96.75 150.07 C 98.45 156.70 102.97 162.31 107.66 167.12 C 109.29 168.66 111.11 169.99 112.95 171.27 C 121.66 176.62 132.27 178.45 142.29 176.37 C 147.23 174.86 152.22 173.01 156.41 169.94 C 159.91 166.86 163.28 163.57 166.02 159.79 C 168.78 154.89 171.74 149.74 172.09 144.01 L 173.05 144.04 C 175.92 151.47 167.71 157.06 168.42 164.56 C 166.55 170.68 158.86 171.07 154.13 174.06 C 156.52 176.34 158.59 179.97 161.80 181.07 C 159.58 170.27 170.81 171.89 177.14 174.05 C 176.45 171.27 172.82 168.72 175.03 165.86 C 175.43 166.18 176.23 166.82 176.63 167.15 C 179.78 170.67 181.41 175.72 176.13 178.16 C 173.14 176.50 169.18 171.69 166.05 175.94 C 158.59 177.94 168.03 187.57 162.01 190.09 C 159.50 191.94 158.08 188.02 156.25 186.80 C 151.77 180.72 143.08 187.46 145.00 194.10 C 143.86 196.33 141.17 196.30 139.06 196.92 C 136.78 193.45 137.59 185.46 130.94 187.93 C 124.38 186.34 125.42 199.87 118.26 194.70 C 117.95 192.29 117.32 187.45 117.01 185.04 L 116.27 184.60 C 109.89 177.28 105.24 191.47 99.00 186.06 C 99.08 184.03 99.50 182.05 100.28 180.18 C 103.39 176.29 99.51 172.75 95.95 171.08 C 92.04 171.63 86.18 175.24 84.26 170.06 C 89.96 167.16 92.11 155.53 84.17 155.04 C 81.71 154.97 79.23 154.79 76.88 154.01 C 76.43 151.07 77.75 148.64 80.07 146.94 C 81.42 146.29 82.76 145.63 84.09 144.94 C 84.15 148.54 76.62 149.28 79.64 153.32 C 84.24 156.35 87.29 149.90 88.16 146.19 Z" />
<path fill="#6ab610" d=" M 60.89 131.98 C 65.89 132.45 73.28 127.25 76.01 132.92 C 77.75 134.02 79.65 134.82 81.45 135.80 C 78.56 144.79 71.84 151.78 64.13 156.93 C 60.93 158.29 57.48 164.19 57.66 157.11 C 48.18 156.83 38.66 156.67 29.22 157.65 C 26.53 156.67 26.36 152.67 23.06 152.76 C 23.01 148.88 23.00 145.01 23.01 141.14 C 35.65 138.13 48.01 134.02 60.89 131.98 Z" />
<path fill="#bbd591" d=" M 172.32 131.70 C 173.35 135.71 172.68 139.95 173.05 144.04 L 172.09 144.01 C 172.14 139.91 172.22 135.80 172.32 131.70 Z" />
<path fill="#6db516" d=" M 191.77 132.76 C 199.22 132.55 206.55 135.64 213.87 137.16 C 214.25 145.14 213.91 153.13 213.98 161.12 C 210.70 156.84 206.71 158.03 202.35 158.81 C 200.65 154.87 198.33 154.80 196.68 158.80 C 192.93 157.53 190.13 158.85 187.75 161.78 C 182.88 160.90 176.44 160.20 176.63 167.15 C 176.23 166.82 175.43 166.18 175.03 165.86 C 177.04 162.28 177.88 156.35 183.97 158.98 C 193.12 160.78 189.68 150.93 183.80 150.05 C 183.51 147.99 183.13 145.95 182.48 143.97 C 183.19 137.80 195.37 141.03 191.77 132.76 Z" />
<path fill="#f0fed1" d=" M 18.22 132.77 C 19.88 145.55 21.11 158.37 21.75 171.24 C 22.06 178.23 21.63 185.29 22.73 192.25 C 24.03 198.09 26.74 203.75 30.86 208.13 C 31.09 208.38 31.56 208.90 31.79 209.15 C 35.48 213.15 40.29 216.42 45.76 217.23 C 93.83 218.55 142.27 218.42 190.29 217.36 C 200.18 214.93 209.31 208.02 212.05 197.85 C 213.30 195.15 214.01 192.23 214.43 189.29 C 215.86 173.32 214.51 157.20 215.05 141.17 C 216.04 140.78 217.03 140.38 218.01 139.97 C 218.16 157.75 217.60 175.54 218.38 193.31 C 217.72 196.19 216.85 199.01 215.97 201.82 C 210.53 212.18 200.99 220.40 189.30 222.40 C 141.80 221.64 94.26 221.93 46.75 222.26 C 42.36 221.19 38.17 219.49 33.95 217.93 C 31.08 215.34 28.34 212.60 25.27 210.25 C 21.81 204.73 18.88 198.70 17.75 192.25 C 18.41 172.43 17.63 152.59 18.22 132.77 Z" />
<path fill="#88c633" d=" M 81.45 135.80 C 85.54 136.86 83.99 141.72 84.09 144.94 C 82.76 145.63 81.42 146.29 80.07 146.94 C 76.18 146.63 73.72 152.06 76.88 154.01 C 79.23 154.79 81.71 154.97 84.17 155.04 C 79.35 162.15 74.75 170.59 66.25 173.72 C 59.06 171.18 60.27 161.96 64.13 156.93 C 71.84 151.78 78.56 144.79 81.45 135.80 Z" />
<path fill="#70bb11" d=" M 219.04 138.95 L 220.02 138.93 C 224.75 140.01 229.57 140.97 234.02 142.99 C 234.04 151.66 233.99 160.32 233.98 168.99 C 229.33 168.28 224.62 168.36 219.99 169.09 C 219.68 161.32 220.80 153.39 219.32 145.70 C 219.25 144.01 219.11 140.64 219.04 138.95 Z" />
<path fill="#76be10" d=" M 1.98 149.00 C 6.92 146.81 12.09 145.18 17.04 142.99 C 17.00 155.35 17.01 167.71 16.97 180.07 C 13.02 175.68 6.89 178.21 1.99 176.01 C 1.97 167.00 1.97 158.00 1.98 149.00 Z" />
<path fill="#b8d68c" d=" M 183.80 150.05 C 180.56 149.91 181.15 146.33 182.48 143.97 C 183.13 145.95 183.51 147.99 183.80 150.05 Z" />
<path fill="#86b638" d=" M 219.32 145.70 C 220.80 153.39 219.68 161.32 219.99 169.09 C 219.63 175.02 221.04 180.88 220.36 186.80 C 220.06 188.30 219.71 189.79 219.16 191.21 C 218.90 176.04 218.79 160.86 219.32 145.70 Z" />
<path fill="#bcdb88" d=" M 76.88 154.01 C 73.72 152.06 76.18 146.63 80.07 146.94 C 77.75 148.64 76.43 151.07 76.88 154.01 Z" />
<path fill="#78bf13" d=" M 23.06 152.76 C 26.36 152.67 26.53 156.67 29.22 157.65 C 38.66 156.67 48.18 156.83 57.66 157.11 C 57.48 164.19 60.93 158.29 64.13 156.93 C 60.27 161.96 59.06 171.18 66.25 173.72 C 74.75 170.59 79.35 162.15 84.17 155.04 C 92.11 155.53 89.96 167.16 84.26 170.06 C 83.31 172.94 81.58 175.35 79.21 177.26 C 74.78 180.16 75.98 172.16 72.01 174.95 C 62.75 179.95 57.19 167.89 47.99 170.02 C 39.60 170.17 27.42 167.80 23.12 177.26 C 22.93 169.09 22.96 160.92 23.06 152.76 Z" />
<path fill="#7ac211" d=" M 196.68 158.80 C 198.33 154.80 200.65 154.87 202.35 158.81 C 206.71 158.03 210.70 156.84 213.98 161.12 C 214.07 166.41 213.96 171.68 213.95 176.97 C 209.52 175.48 205.17 179.12 200.87 177.13 C 194.61 174.71 187.78 179.03 181.48 177.11 C 179.44 175.39 177.90 180.23 176.13 178.16 C 181.41 175.72 179.78 170.67 176.63 167.15 C 176.44 160.20 182.88 160.90 187.75 161.78 C 190.13 158.85 192.93 157.53 196.68 158.80 Z" />
<path fill="#8dca35" d=" M 112.95 171.27 C 121.08 169.79 122.94 157.65 131.99 157.31 C 143.26 158.98 154.67 159.68 166.02 159.79 C 163.28 163.57 159.91 166.86 156.41 169.94 C 149.23 166.40 139.89 169.88 132.72 172.72 C 126.55 178.08 139.51 175.53 142.29 176.37 C 132.27 178.45 121.66 176.62 112.95 171.27 Z" />
<path fill="#81bf1e" d=" M 132.72 172.72 C 139.89 169.88 149.23 166.40 156.41 169.94 C 152.22 173.01 147.23 174.86 142.29 176.37 C 139.51 175.53 126.55 178.08 132.72 172.72 Z" />
<path fill="#85ca11" d=" M 219.99 169.09 C 224.62 168.36 229.33 168.28 233.98 168.99 C 234.03 176.71 234.05 184.42 234.03 192.14 C 227.90 193.93 220.16 194.82 220.36 186.80 C 221.04 180.88 219.63 175.02 219.99 169.09 Z" />
<path fill="#84ca0f" d=" M 23.12 177.26 C 27.42 167.80 39.60 170.17 47.99 170.02 C 57.19 167.89 62.75 179.95 72.01 174.95 C 75.98 172.16 74.78 180.16 79.21 177.26 C 75.78 179.67 65.91 187.24 74.00 189.91 C 82.91 186.50 89.41 178.94 98.02 175.05 C 100.45 175.13 99.95 178.48 100.28 180.18 C 99.50 182.05 99.08 184.03 99.00 186.06 C 98.15 187.14 97.25 188.21 96.18 189.10 C 92.61 188.90 90.55 192.34 87.28 193.16 C 87.68 191.37 87.84 188.27 85.04 188.96 C 80.20 190.65 74.78 193.68 69.65 191.34 C 58.22 181.58 41.43 190.71 28.33 185.65 C 25.38 184.23 24.69 188.67 23.03 190.25 C 23.11 185.92 23.04 181.59 23.12 177.26 Z" />
<path fill="#96ce34" d=" M 84.26 170.06 C 86.18 175.24 92.04 171.63 95.95 171.08 C 99.51 172.75 103.39 176.29 100.28 180.18 C 99.95 178.48 100.45 175.13 98.02 175.05 C 89.41 178.94 82.91 186.50 74.00 189.91 C 65.91 187.24 75.78 179.67 79.21 177.26 C 81.58 175.35 83.31 172.94 84.26 170.06 Z" />
<path fill="#8acd12" d=" M 166.05 175.94 C 169.18 171.69 173.14 176.50 176.13 178.16 C 177.90 180.23 179.44 175.39 181.48 177.11 C 187.78 179.03 194.61 174.71 200.87 177.13 C 205.17 179.12 209.52 175.48 213.95 176.97 C 214.08 181.08 214.23 185.18 214.43 189.29 C 214.01 192.23 213.30 195.15 212.05 197.85 C 210.98 198.52 209.94 199.23 208.94 199.98 C 209.13 198.03 209.39 196.08 209.54 194.13 C 197.21 192.08 184.04 190.80 172.00 194.64 C 163.84 194.93 154.87 193.00 147.54 197.39 C 142.39 195.81 134.87 205.39 131.72 200.05 C 134.12 198.89 136.51 197.72 139.06 196.92 C 141.17 196.30 143.86 196.33 145.00 194.10 C 147.49 190.07 151.79 187.95 156.25 186.80 C 158.08 188.02 159.50 191.94 162.01 190.09 C 168.03 187.57 158.59 177.94 166.05 175.94 Z" />
<path fill="#8fd112" d=" M 1.99 176.01 C 6.89 178.21 13.02 175.68 16.97 180.07 C 17.08 184.14 17.13 188.21 17.75 192.25 C 18.88 198.70 21.81 204.73 25.27 210.25 C 19.76 203.65 3.46 201.89 3.56 213.31 C 2.85 211.66 2.07 210.02 1.72 208.25 C 2.09 197.50 2.01 186.76 1.99 176.01 Z" />
<path fill="#9fd634" d=" M 99.00 186.06 C 105.24 191.47 109.89 177.28 116.27 184.60 C 107.07 190.10 99.25 197.57 90.32 203.37 C 86.56 205.89 83.59 202.74 81.76 199.97 C 85.79 195.46 92.03 193.55 96.18 189.10 C 97.25 188.21 98.15 187.14 99.00 186.06 Z" />
<path fill="#9cc74d" d=" M 145.00 194.10 C 143.08 187.46 151.77 180.72 156.25 186.80 C 151.79 187.95 147.49 190.07 145.00 194.10 Z" />
<path fill="#8fd210" d=" M 23.03 190.25 C 24.69 188.67 25.38 184.23 28.33 185.65 C 41.43 190.71 58.22 181.58 69.65 191.34 C 74.78 193.68 80.20 190.65 85.04 188.96 C 87.84 188.27 87.68 191.37 87.28 193.16 C 90.55 192.34 92.61 188.90 96.18 189.10 C 92.03 193.55 85.79 195.46 81.76 199.97 C 83.59 202.74 86.56 205.89 90.32 203.37 C 99.25 197.57 107.07 190.10 116.27 184.60 L 117.01 185.04 C 118.39 192.21 116.57 199.42 109.91 203.07 C 106.17 205.97 105.15 203.78 104.89 199.92 C 97.54 202.96 90.08 208.08 81.67 205.37 C 76.41 203.55 74.21 195.13 67.38 199.28 C 58.43 198.72 48.99 201.03 40.39 197.85 C 41.30 204.92 24.28 191.88 28.37 202.45 C 30.03 204.00 31.51 205.68 30.86 208.13 C 26.74 203.75 24.03 198.09 22.73 192.25 C 22.81 191.75 22.95 190.75 23.03 190.25 Z" />
<path fill="#a2d739" d=" M 117.01 185.04 C 117.32 187.45 117.95 192.29 118.26 194.70 C 125.42 199.87 124.38 186.34 130.94 187.93 C 137.59 185.46 136.78 193.45 139.06 196.92 C 136.51 197.72 134.12 198.89 131.72 200.05 C 124.76 202.62 117.78 205.89 110.20 205.96 C 110.12 205.24 109.98 203.79 109.91 203.07 C 116.57 199.42 118.39 192.21 117.01 185.04 Z" />
<path fill="#98d617" d=" M 220.36 186.80 C 220.16 194.82 227.90 193.93 234.03 192.14 C 233.97 197.53 234.15 202.91 234.42 208.30 C 234.05 213.50 231.07 217.91 228.38 222.19 C 227.79 222.42 226.61 222.88 226.02 223.11 C 226.26 218.46 227.62 214.28 230.72 210.81 C 230.35 205.60 225.42 206.96 223.04 209.99 C 216.30 201.29 212.78 219.24 204.82 217.97 C 209.14 213.21 216.40 209.05 215.97 201.82 C 216.85 199.01 217.72 196.19 218.38 193.31 C 218.57 192.79 218.97 191.74 219.16 191.21 C 219.71 189.79 220.06 188.30 220.36 186.80 Z" />
<path fill="#98da0d" d=" M 172.00 194.64 C 184.04 190.80 197.21 192.08 209.54 194.13 C 209.39 196.08 209.13 198.03 208.94 199.98 C 206.31 207.42 198.64 211.42 192.33 215.32 C 152.28 214.56 112.12 215.95 72.00 214.98 C 60.78 213.56 48.62 218.68 38.48 211.51 C 36.54 209.95 34.41 208.57 31.79 209.15 C 31.56 208.90 31.09 208.38 30.86 208.13 C 31.51 205.68 30.03 204.00 28.37 202.45 C 24.28 191.88 41.30 204.92 40.39 197.85 C 48.99 201.03 58.43 198.72 67.38 199.28 C 74.21 195.13 76.41 203.55 81.67 205.37 C 90.08 208.08 97.54 202.96 104.89 199.92 C 105.15 203.78 106.17 205.97 109.91 203.07 C 109.98 203.79 110.12 205.24 110.20 205.96 C 117.78 205.89 124.76 202.62 131.72 200.05 C 134.87 205.39 142.39 195.81 147.54 197.39 C 154.87 193.00 163.84 194.93 172.00 194.64 Z" />
<path fill="#a0d721" d=" M 208.94 199.98 C 209.94 199.23 210.98 198.52 212.05 197.85 C 209.31 208.02 200.18 214.93 190.29 217.36 C 142.13 216.69 93.93 216.92 45.76 217.23 C 40.29 216.42 35.48 213.15 31.79 209.15 C 34.41 208.57 36.54 209.95 38.48 211.51 C 48.62 218.68 60.78 213.56 72.00 214.98 C 112.12 215.95 152.28 214.56 192.33 215.32 C 198.64 211.42 206.31 207.42 208.94 199.98 Z" />
<path fill="#a5d040" d=" M 189.30 222.40 C 200.99 220.40 210.53 212.18 215.97 201.82 C 216.40 209.05 209.14 213.21 204.82 217.97 C 199.71 221.10 194.23 224.26 187.99 223.92 C 141.03 224.01 94.06 224.16 47.11 223.84 C 42.62 222.55 36.72 222.34 33.95 217.93 C 38.17 219.49 42.36 221.19 46.75 222.26 C 94.18 223.58 141.88 223.32 189.30 222.40 Z" />
<path fill="#a4e20e" d=" M 3.56 213.31 C 3.46 201.89 19.76 203.65 25.27 210.25 C 28.34 212.60 31.08 215.34 33.95 217.93 C 36.72 222.34 42.62 222.55 47.11 223.84 C 94.06 224.16 141.03 224.01 187.99 223.92 C 194.23 224.26 199.71 221.10 204.82 217.97 C 212.78 219.24 216.30 201.29 223.04 209.99 C 225.42 206.96 230.35 205.60 230.72 210.81 C 227.62 214.28 226.26 218.46 226.02 223.11 C 223.98 225.42 221.89 227.70 220.05 230.18 C 218.83 230.92 217.57 231.60 216.29 232.23 C 212.08 231.98 208.20 234.06 203.99 233.91 C 145.56 234.38 87.10 233.43 28.69 234.35 C 28.01 234.28 26.66 234.13 25.99 234.06 C 23.52 232.50 20.72 231.60 17.85 231.16 C 14.71 227.93 11.59 224.66 7.97 221.94 C 6.29 219.17 4.77 216.31 3.56 213.31 Z" />
<path fill="#e6e7e4" d=" M 0.00 210.50 C 2.78 214.90 3.63 220.83 8.07 223.97 C 9.55 225.16 10.94 226.46 12.24 227.87 C 11.93 229.83 11.46 231.77 11.25 233.76 C 26.53 240.27 43.62 237.55 59.58 241.00 L 0.00 241.00 L 0.00 210.50 Z" />
<path fill="#c4e570" d=" M 45.76 217.23 C 93.93 216.92 142.13 216.69 190.29 217.36 C 142.27 218.42 93.83 218.55 45.76 217.23 Z" />
<path fill="#bee172" d=" M 7.97 221.94 C 11.59 224.66 14.71 227.93 17.85 231.16 C 15.53 230.98 13.78 229.48 12.24 227.87 C 10.94 226.46 9.55 225.16 8.07 223.97 C 8.04 223.46 8.00 222.45 7.97 221.94 Z" />
<path fill="#b5d56d" d=" M 46.75 222.26 C 94.26 221.93 141.80 221.64 189.30 222.40 C 141.88 223.32 94.18 223.58 46.75 222.26 Z" />
<path fill="#b7dd66" d=" M 226.02 223.11 C 226.61 222.88 227.79 222.42 228.38 222.19 C 227.80 223.15 227.22 224.11 226.64 225.06 C 224.98 226.56 223.39 228.12 221.84 229.72 C 221.39 229.84 220.50 230.07 220.05 230.18 C 221.89 227.70 223.98 225.42 226.02 223.11 Z" />
<path fill="#e1e3e0" d=" M 221.84 229.72 C 223.39 228.12 224.98 226.56 226.64 225.06 C 230.34 226.19 234.14 226.81 238.00 227.17 L 238.00 241.00 L 173.56 241.00 C 189.00 237.16 205.95 240.48 220.67 233.66 C 222.46 232.80 223.26 231.40 221.84 229.72 Z" />
<path fill="#ced4c8" d=" M 12.24 227.87 C 13.78 229.48 15.53 230.98 17.85 231.16 C 19.89 233.51 23.09 233.82 25.99 234.06 C 31.24 237.99 38.69 235.08 44.78 236.23 C 93.87 237.57 143.22 237.38 192.30 236.36 C 197.61 236.03 202.96 236.06 208.24 235.26 C 211.09 234.80 213.75 233.57 216.29 232.23 C 217.57 231.60 218.83 230.92 220.05 230.18 C 220.50 230.07 221.39 229.84 221.84 229.72 C 223.26 231.40 222.46 232.80 220.67 233.66 C 205.95 240.48 189.00 237.16 173.56 241.00 L 59.58 241.00 C 43.62 237.55 26.53 240.27 11.25 233.76 C 11.46 231.77 11.93 229.83 12.24 227.87 Z" />
<path fill="#b7db64" d=" M 17.85 231.16 C 20.72 231.60 23.52 232.50 25.99 234.06 C 23.09 233.82 19.89 233.51 17.85 231.16 Z" />
<path fill="#abdb37" d=" M 203.99 233.91 C 208.20 234.06 212.08 231.98 216.29 232.23 C 213.75 233.57 211.09 234.80 208.24 235.26 C 148.41 234.20 88.43 236.07 28.69 234.35 C 87.10 233.43 145.56 234.38 203.99 233.91 Z" />
<path fill="#b3d663" d=" M 25.99 234.06 C 26.66 234.13 28.01 234.28 28.69 234.35 C 88.43 236.07 148.41 234.20 208.24 235.26 C 202.96 236.06 197.61 236.03 192.30 236.36 C 143.14 235.68 93.94 235.93 44.78 236.23 C 38.69 235.08 31.24 237.99 25.99 234.06 Z" />
<path fill="#b9cf94" d=" M 44.78 236.23 C 93.94 235.93 143.14 235.68 192.30 236.36 C 143.22 237.38 93.87 237.57 44.78 236.23 Z" />
</svg>
